<svg width="124" height="30" viewBox="0 0 124 30" fill="none" xmlns="http://www.w3.org/2000/svg">
<rect x="0.5" y="0.5" width="123" height="29" rx="14.5" fill="#EF7D00" stroke="#EF7D00"/>
<path d="M39.166 17.54H41.413V24.743H39.166V17.54ZM45.781 17.54H48.028V24.743H45.781V17.54ZM34.945 16.364H52.333V18.149H34.945V16.364ZM43.597 6.263C47.65 6.263 50.401 7.901 50.401 10.505C50.401 13.067 47.65 14.726 43.597 14.726C39.565 14.726 36.793 13.067 36.793 10.505C36.793 7.901 39.565 6.263 43.597 6.263ZM43.597 8.027C40.846 8.027 39.04 8.951 39.04 10.505C39.04 12.038 40.846 12.962 43.597 12.962C46.348 12.962 48.154 12.038 48.154 10.505C48.154 8.951 46.348 8.027 43.597 8.027ZM64.5784 9.98H68.3164V11.765H64.5784V9.98ZM64.5574 13.76H68.2744V15.524H64.5574V13.76ZM53.8054 7.481H64.4734V9.245H53.8054V7.481ZM59.2234 10.085C61.8274 10.085 63.6334 11.513 63.6334 13.655C63.6334 15.797 61.8274 17.225 59.2234 17.225C56.6404 17.225 54.8134 15.797 54.8134 13.655C54.8134 11.513 56.6404 10.085 59.2234 10.085ZM59.2234 11.744C57.8164 11.744 56.8714 12.458 56.8714 13.655C56.8714 14.852 57.8164 15.566 59.2234 15.566C60.6304 15.566 61.5964 14.852 61.5964 13.655C61.5964 12.458 60.6304 11.744 59.2234 11.744ZM58.1524 5.381H60.3364V8.699H58.1524V5.381ZM67.4764 5.549H69.6814V17.876H67.4764V5.549ZM63.2974 18.086C67.3084 18.086 69.7654 19.325 69.7654 21.404C69.7654 23.504 67.3084 24.722 63.2974 24.722C59.2864 24.722 56.8294 23.504 56.8294 21.404C56.8294 19.325 59.2864 18.086 63.2974 18.086ZM63.2974 19.787C60.6724 19.787 59.1394 20.333 59.1394 21.404C59.1394 22.475 60.6724 23.042 63.2974 23.042C65.9224 23.042 67.4554 22.475 67.4554 21.404C67.4554 20.333 65.9224 19.787 63.2974 19.787ZM77.2857 7.481H79.0707V8.888C79.0707 12.437 77.1177 15.587 73.6947 16.763L72.5817 15.02C75.5637 14.012 77.2857 11.471 77.2857 8.888V7.481ZM77.7267 7.481H79.4907V8.888C79.4907 11.261 81.1287 13.634 84.0057 14.621L82.9137 16.364C79.5957 15.209 77.7267 12.185 77.7267 8.888V7.481ZM82.9347 10.358H86.9247V12.164H82.9347V10.358ZM73.2117 6.746H83.5017V8.51H73.2117V6.746ZM75.5637 17.96H88.4997V24.743H86.2947V19.745H75.5637V17.96ZM86.2947 5.549H88.4997V16.994H86.2947V5.549ZM95.5161 12.017H97.7001V15.587H95.5161V12.017ZM102.425 12.017H104.609V15.587H102.425V12.017ZM91.4001 14.873H108.746V16.616H91.4001V14.873ZM100.052 17.855C104.168 17.855 106.667 19.094 106.667 21.278C106.667 23.483 104.168 24.722 100.052 24.722C95.9151 24.722 93.4371 23.483 93.4371 21.278C93.4371 19.094 95.9151 17.855 100.052 17.855ZM100.052 19.535C97.2381 19.535 95.6631 20.144 95.6631 21.278C95.6631 22.433 97.2381 23.042 100.052 23.042C102.866 23.042 104.441 22.433 104.441 21.278C104.441 20.144 102.866 19.535 100.052 19.535ZM100.073 5.864C104.273 5.864 106.919 7.229 106.919 9.497C106.919 11.765 104.273 13.088 100.073 13.088C95.8731 13.088 93.2481 11.765 93.2481 9.497C93.2481 7.229 95.8731 5.864 100.073 5.864ZM100.073 7.565C97.2171 7.565 95.5161 8.237 95.5161 9.497C95.5161 10.736 97.2171 11.408 100.073 11.408C102.95 11.408 104.651 10.736 104.651 9.497C104.651 8.237 102.95 7.565 100.073 7.565Z" fill="white"/>
<circle cx="15" cy="10" r="3" fill="white"/>
<circle cx="26" cy="10" r="3" fill="white"/>
<circle cx="15" cy="20" r="3" fill="white"/>
<circle cx="26" cy="20" r="3" fill="white"/>
</svg>
