<svg width="36" height="36" viewBox="0 0 36 36" fill="none" xmlns="http://www.w3.org/2000/svg">
<circle cx="18" cy="18" r="18" fill="#558AC9"/>
<path d="M28.8043 11.7246C28.6903 11.4702 28.5309 11.2352 28.3379 11.0273L23.9726 6.66209C23.5547 6.24419 22.9685 6 22.3774 6H16.25C15.0093 6 14 7.00927 14 8.25V9H10.25C9.00927 9 8 10.0093 8 11.25V27.75C8 28.9907 9.00927 30 10.25 30H20.75C21.9907 30 23 28.9907 23 27.75V27H26.75C27.9907 27 29 25.9907 29 24.75C29 24.75 29 12.627 29 12.6226C29 12.3068 28.9296 12.004 28.8043 11.7246ZM26.4395 11.25H24.5C24.0862 11.25 23.75 10.9138 23.75 10.5V8.56054L26.4395 11.25ZM21.5 27.75C21.5 28.1638 21.1638 28.5 20.75 28.5H10.25C9.83655 28.5 9.5 28.1638 9.5 27.75V11.25C9.5 10.8362 9.83655 10.5 10.25 10.5H16.25V13.5C16.25 14.7407 17.2593 15.75 18.5 15.75H21.5V27.75ZM20.4395 14.25H18.5C18.0865 14.25 17.75 13.9138 17.75 13.5V11.5605L20.4395 14.25ZM26.75 25.5H23C23 25.5 23 15.6239 23 15.6211C23 15.0506 22.75 14.4395 22.3408 14.0303L17.9697 9.65918C17.5531 9.2426 16.9675 9 16.3785 9H15.5V8.25C15.5 7.83618 15.8365 7.5 16.25 7.5H22.25V10.5C22.25 11.7407 23.2593 12.75 24.5 12.75H27.5V24.75C27.5 25.1638 27.1638 25.5 26.75 25.5Z" fill="white"/>
<path fill-rule="evenodd" clip-rule="evenodd" d="M28.5948 10.7891C28.8117 11.0227 28.9933 11.2894 29.1241 11.5814L28.8047 11.7245C28.6907 11.4701 28.5313 11.2351 28.3383 11.0272L23.973 6.66199L24.2205 6.41451L28.5948 10.7891ZM14.0004 8.2499C14.0004 7.00918 15.0097 5.9999 16.2504 5.9999H22.3778C22.9689 5.9999 23.5551 6.24409 23.973 6.66199L24.2205 6.41451C23.7374 5.93135 23.0623 5.6499 22.3778 5.6499H16.2504C14.8164 5.6499 13.6504 6.81588 13.6504 8.2499V8.6499H10.2504C8.81637 8.6499 7.65039 9.81588 7.65039 11.2499V27.7499C7.65039 29.1839 8.81637 30.3499 10.2504 30.3499H20.7504C22.1844 30.3499 23.3504 29.1839 23.3504 27.7499V27.3499H26.7504C28.1844 27.3499 29.3504 26.1839 29.3504 24.7499H29.0004C29.3504 24.7499 29.3504 24.75 29.3504 24.7499V12.6231C29.3504 12.2545 29.268 11.9025 29.1241 11.5814L28.8047 11.7245C28.93 12.0039 29.0004 12.3067 29.0004 12.6225V24.7499C29.0004 25.9906 27.9911 26.9999 26.7504 26.9999H23.0004V27.7499C23.0004 28.9906 21.9911 29.9999 20.7504 29.9999H10.2504C9.00967 29.9999 8.00039 28.9906 8.00039 27.7499V11.2499C8.00039 10.0092 9.00967 8.9999 10.2504 8.9999H14.0004V8.2499ZM26.4398 11.2499L23.7504 8.56045V10.4999C23.7504 10.9137 24.0866 11.2499 24.5004 11.2499H26.4398ZM25.5949 10.8999L24.1004 9.40542V10.4999C24.1004 10.7204 24.2799 10.8999 24.5004 10.8999H25.5949ZM20.7504 28.1499C20.9709 28.1499 21.1504 27.9704 21.1504 27.7499V16.0999H18.5004C17.0664 16.0999 15.9004 14.9339 15.9004 13.4999V10.8499H10.2504C10.0301 10.8499 9.85039 11.0295 9.85039 11.2499V27.7499C9.85039 27.9703 10.0301 28.1499 10.2504 28.1499H20.7504ZM20.4398 14.2499L17.7504 11.5604V13.4999C17.7504 13.9137 18.0869 14.2499 18.5004 14.2499H20.4398ZM19.5949 13.8999L18.1004 12.4054V13.4999C18.1004 13.7203 18.2801 13.8999 18.5004 13.8999H19.5949ZM23.3504 25.1499H26.7504C26.9709 25.1499 27.1504 24.9704 27.1504 24.7499V13.0999H24.5004C23.0664 13.0999 21.9004 11.9339 21.9004 10.4999V7.8499H16.2504C16.0301 7.8499 15.8504 8.02949 15.8504 8.2499V8.6499H16.3789C17.0607 8.6499 17.7354 8.9294 18.2176 9.4116L22.5887 13.7827C23.064 14.2579 23.3504 14.9583 23.3504 15.621V25.1499ZM23.0004 25.4999H26.7504C27.1642 25.4999 27.5004 25.1637 27.5004 24.7499V12.7499H24.5004C23.2597 12.7499 22.2504 11.7406 22.2504 10.4999V7.4999H16.2504C15.8369 7.4999 15.5004 7.83608 15.5004 8.2499V8.9999H16.3789C16.9679 8.9999 17.5535 9.2425 17.9701 9.65908L22.3412 14.0302C22.7504 14.4394 23.0004 15.0505 23.0004 15.621V25.4999ZM20.7504 28.4999C21.1642 28.4999 21.5004 28.1637 21.5004 27.7499V15.7499H18.5004C17.2597 15.7499 16.2504 14.7406 16.2504 13.4999V10.4999H10.2504C9.83694 10.4999 9.50039 10.8361 9.50039 11.2499V27.7499C9.50039 28.1637 9.83694 28.4999 10.2504 28.4999H20.7504Z" fill="white"/>
</svg>
