<svg width="26" height="26" viewBox="0 0 26 26" fill="none" xmlns="http://www.w3.org/2000/svg">
<rect width="26" height="26" rx="4" fill="#EF7D00"/>
<path d="M22.1027 13C22.1027 8.02944 18.0732 4 13.1027 4C10.8999 4 8.88196 4.79192 7.31763 6.10558L9.24583 8.40372C10.2889 7.52766 11.6342 6.99986 13.1027 6.99986C16.4165 6.99986 19.1028 9.68615 19.1028 13H17.0007L20.6029 17.1231L24.2052 13H22.1027Z" fill="white"/>
<path d="M13.1025 19.0002C9.78869 19.0002 7.1024 16.3139 7.1024 13.0001H9.20451L5.60225 8.87695L2 13.0001H4.10254C4.10254 17.9706 8.13199 22.0001 13.1025 22.0001C15.3053 22.0001 17.3232 21.2081 18.8876 19.8945L16.9594 17.5964C15.9163 18.4724 14.571 19.0002 13.1025 19.0002Z" fill="white"/>
</svg>
