<svg width="36" height="36" viewBox="0 0 36 36" fill="none" xmlns="http://www.w3.org/2000/svg">
<circle cx="18" cy="18" r="18" fill="#E9E9E9"/>
<path d="M28.5057 14.8438L22.2913 8.62864C21.873 8.22534 21.3146 8 20.7335 8C20.1524 8 19.594 8.22534 19.1757 8.62864L12.4348 15.3651L21.7685 24.6966L28.5049 17.9557C28.7109 17.7521 28.8744 17.5097 28.986 17.2425C29.0976 16.9753 29.1551 16.6886 29.1551 16.399C29.1551 16.1094 29.0976 15.8227 28.986 15.5555C28.8744 15.2883 28.7109 15.0459 28.5049 14.8423L28.5057 14.8438Z" fill="#B5B5B5"/>
<path d="M27.6866 25.5764H20.5739L11.3994 16.4019L8.80731 18.9939C8.60289 19.1982 8.44073 19.4408 8.33009 19.7078C8.21946 19.9747 8.16251 20.2609 8.16251 20.5499C8.16251 20.8389 8.21946 21.1251 8.33009 21.3921C8.44073 21.659 8.60289 21.9016 8.80731 22.1059L12.2778 25.5764H7.88853C7.69406 25.5764 7.50755 25.6537 7.37004 25.7912C7.23253 25.9287 7.15527 26.1152 7.15527 26.3097C7.15527 26.5041 7.23253 26.6906 7.37004 26.8282C7.50755 26.9657 7.69406 27.0429 7.88853 27.0429H27.6866C27.881 27.0429 28.0675 26.9657 28.2051 26.8282C28.3426 26.6906 28.4198 26.5041 28.4198 26.3097C28.4198 26.1152 28.3426 25.9287 28.2051 25.7912C28.0675 25.6537 27.881 25.5764 27.6866 25.5764Z" fill="#B5B5B5"/>
</svg>
