<svg width="144" height="25" viewBox="0 0 144 25" fill="none" xmlns="http://www.w3.org/2000/svg">
<g clip-path="url(#clip0_50_9314)">
<path d="M78.3193 18.3148C78.3193 17.5413 78.9529 16.9336 79.6967 16.9336C80.4405 16.9336 81.0742 17.569 81.0742 18.3148C81.0742 19.0883 80.4405 19.696 79.6967 19.696C78.9529 19.696 78.3193 19.0607 78.3193 18.3148Z" fill="#EF7D00"/>
<path d="M44.2975 3.72925H42.4793C42.4242 3.72925 42.3967 3.75687 42.3967 3.81212V7.98339H41.3774C41.0744 5.8287 39.449 4.22649 37.2176 4.22649C34.9862 4.22649 33.1405 6.02207 33.0303 8.39776C33.0303 8.75687 33.0303 9.30936 33.0303 9.66847C33.168 12.0442 34.8485 13.8397 37.2176 13.8397C39.5867 13.8397 41.1294 12.2099 41.3774 9.99997H42.3967V19.2817C42.3967 19.337 42.4242 19.3646 42.4793 19.3646H44.2975C44.3526 19.3646 44.3801 19.337 44.3801 19.2817V3.81212C44.3801 3.75687 44.3526 3.72925 44.2975 3.72925ZM39.4766 9.64085C39.3939 10.9668 38.5399 11.9889 37.2176 11.9889C35.8953 11.9889 35.0413 10.9668 34.9586 9.64085C34.9586 9.28173 34.9586 8.75687 34.9586 8.42538C35.0413 7.09941 35.8953 6.07731 37.2176 6.07731C38.5399 6.07731 39.3939 7.09941 39.4766 8.42538C39.4766 8.7845 39.4766 9.30936 39.4766 9.64085Z" fill="#001437"/>
<path d="M47.3825 3.72925H45.5367C45.4911 3.72925 45.4541 3.76635 45.4541 3.81212V19.2541C45.4541 19.2999 45.4911 19.337 45.5367 19.337H47.3825C47.4281 19.337 47.4651 19.2999 47.4651 19.2541V3.81212C47.4651 3.76635 47.4281 3.72925 47.3825 3.72925Z" fill="#001437"/>
<path d="M53.7469 4.22656C51.3778 4.22656 49.5596 6.02214 49.4219 8.39783C49.4219 8.75695 49.4219 9.47518 49.4219 9.8343C49.5596 12.21 51.3778 14.0056 53.7469 14.0056C56.1161 14.0056 57.9343 12.21 58.072 9.8343C58.072 9.47518 58.072 8.75695 58.072 8.39783C57.9343 6.02214 56.1161 4.22656 53.7469 4.22656ZM56.1436 9.80667C56.061 11.1326 55.0968 12.1547 53.7469 12.1547C52.3971 12.1547 51.4329 11.1326 51.3502 9.80667C51.3502 9.44756 51.3502 8.75695 51.3502 8.42546C51.4329 7.09949 52.3971 6.07739 53.7469 6.07739C55.0968 6.07739 56.061 7.09949 56.1436 8.42546C56.1436 8.78457 56.1436 9.47518 56.1436 9.80667Z" fill="#001437"/>
<path d="M61.8733 3.72925H59.945C59.8993 3.72925 59.8623 3.76635 59.8623 3.81212V19.2541C59.8623 19.2999 59.8993 19.337 59.945 19.337H61.8733C61.919 19.337 61.956 19.2999 61.956 19.2541V3.81212C61.956 3.76635 61.919 3.72925 61.8733 3.72925Z" fill="#001437"/>
<path d="M76.7771 17.7349C75.1518 17.431 72.5071 16.547 72.5071 14.3095V13.7294C72.5071 13.6741 72.4796 13.6465 72.4245 13.6465H70.689C70.6339 13.6465 70.6063 13.6741 70.6063 13.7294V14.3095C70.6063 16.547 67.9892 17.431 66.3363 17.7349C66.3088 17.7349 66.2812 17.7901 66.2812 17.8178L66.6945 19.4476C66.6945 19.4752 66.7496 19.5028 66.7771 19.5028C68.9259 18.978 70.5237 18.2597 71.4879 17.0443L71.543 16.989L71.5981 17.0443C72.5622 18.2321 74.16 18.978 76.3088 19.5028C76.3363 19.5028 76.3914 19.5028 76.3914 19.4476L76.8047 17.8178C76.8047 17.7901 76.8047 17.7349 76.7496 17.7349H76.7771Z" fill="#001437"/>
<path d="M73.1125 12.1822C73.14 12.1822 73.1676 12.1546 73.1676 12.0993V10.4143C73.1676 10.359 73.14 10.3314 73.0849 10.3314C71.8728 10.4419 70.6607 10.4971 69.4761 10.4971H66.9968V6.21537H72.3136C72.3687 6.21537 72.3962 6.18774 72.3962 6.13249V4.41979C72.3962 4.36454 72.3687 4.33691 72.3136 4.33691H65.0133C64.9582 4.33691 64.9307 4.36454 64.9307 4.41979V12.2651C64.9307 12.3203 64.9582 12.348 65.0133 12.348H69.421C70.6607 12.348 71.9004 12.2927 73.0849 12.1546L73.1125 12.1822Z" fill="#001437"/>
<path d="M78.3742 7.51378H76.3356V3.81212C76.3356 3.75687 76.3081 3.72925 76.253 3.72925H74.3522C74.2971 3.72925 74.2695 3.75687 74.2695 3.81212V13.7845C74.2695 13.8397 74.2971 13.8674 74.3522 13.8674H76.253C76.3081 13.8674 76.3356 13.8397 76.3356 13.7845V9.44748H78.3742C78.4293 9.44748 78.4569 9.41986 78.4569 9.36461V7.59665C78.4569 7.5414 78.4293 7.51378 78.3742 7.51378Z" fill="#001437"/>
<path d="M133.994 14.6961C133.994 14.7513 134.022 14.779 134.077 14.779H135.482C135.537 14.779 135.564 14.7513 135.564 14.6961V12.6519H136.06C138.264 12.6519 140.082 12.5967 141.487 12.4033V13.895H137.933C137.878 13.895 137.851 13.9226 137.851 13.9779V15.0828C137.851 15.1381 137.878 15.1657 137.933 15.1657H141.487V16.1326C141.487 16.1878 141.515 16.2154 141.57 16.2154H142.975C143.03 16.2154 143.057 16.1878 143.057 16.1326V3.81212C143.057 3.75687 143.03 3.72925 142.975 3.72925H141.57C141.515 3.72925 141.487 3.75687 141.487 3.81212V11.0773C140.082 11.2707 138.264 11.3259 136.06 11.3259H130.275C130.22 11.3259 130.192 11.3536 130.192 11.4088V12.5967C130.192 12.6519 130.22 12.6795 130.275 12.6795H133.994V14.7237V14.6961Z" fill="#001437"/>
<path d="M143.251 18.0387H133.857V15.8011C133.857 15.7459 133.829 15.7183 133.774 15.7183H132.287C132.232 15.7183 132.204 15.7459 132.204 15.8011V19.2818C132.204 19.337 132.232 19.3647 132.287 19.3647H143.223C143.278 19.3647 143.306 19.337 143.306 19.2818V18.1216C143.306 18.0663 143.278 18.0387 143.223 18.0387H143.251Z" fill="#001437"/>
<path d="M135.124 10.359H135.427C137.576 10.359 139.036 8.9778 139.036 6.98885C139.036 4.9999 137.604 3.61869 135.455 3.59106H135.152C133.003 3.59106 131.543 4.97228 131.543 6.96123C131.543 8.95018 132.975 10.3314 135.124 10.3314V10.359ZM135.124 4.9999C135.207 4.9999 135.345 4.9999 135.427 4.9999C136.777 4.9999 137.576 5.82863 137.576 6.98885C137.576 8.14908 136.777 8.95018 135.427 8.9778C135.345 8.9778 135.207 8.9778 135.124 8.9778C133.774 8.9778 132.975 8.14908 132.975 6.98885C132.975 5.82863 133.774 5.02753 135.124 4.9999Z" fill="#001437"/>
<path d="M128.595 7.62424H126.501V3.83971C126.501 3.78446 126.473 3.75684 126.418 3.75684H125.013C124.958 3.75684 124.931 3.78446 124.931 3.83971V12.9281C124.931 12.9834 124.958 13.011 125.013 13.011H126.418C126.473 13.011 126.501 12.9834 126.501 12.9281V9.08833H128.595C128.65 9.08833 128.677 9.0607 128.677 9.00545V7.70711C128.677 7.65186 128.65 7.62424 128.595 7.62424Z" fill="#001437"/>
<path d="M126.418 14.0332H116.06C116.005 14.0332 115.978 14.0608 115.978 14.1161V15.3592C115.978 15.4144 116.005 15.442 116.06 15.442H124.931V19.3094C124.931 19.3647 124.958 19.3923 125.013 19.3923H126.446C126.501 19.3923 126.528 19.3647 126.528 19.3094V14.1437C126.528 14.0885 126.501 14.0608 126.446 14.0608L126.418 14.0332Z" fill="#001437"/>
<path d="M118.87 12.3479C120.881 12.3479 122.396 10.8286 122.396 8.75678C122.396 7.67944 121.983 6.85071 121.432 6.24297H123.057C123.113 6.24297 123.14 6.21535 123.14 6.1601V4.99988C123.14 4.94463 123.113 4.91701 123.057 4.91701H119.559V3.50817C119.559 3.45292 119.531 3.42529 119.476 3.42529H117.933C117.878 3.42529 117.851 3.45292 117.851 3.50817V4.91701H114.352C114.297 4.91701 114.27 4.94463 114.27 4.99988V6.1601C114.27 6.21535 114.297 6.24297 114.352 6.24297H115.978C115.399 6.85071 115.013 7.67944 115.013 8.72916C115.013 10.801 116.501 12.3203 118.512 12.3203H118.843L118.87 12.3479ZM116.501 8.75678C116.501 7.48607 117.327 6.54684 118.567 6.54684C118.65 6.54684 118.815 6.54684 118.87 6.54684C120.11 6.54684 120.936 7.45844 120.936 8.75678C120.936 10.0551 120.11 10.9391 118.87 10.9667C118.787 10.9667 118.622 10.9667 118.567 10.9667C117.327 10.9391 116.501 10.0551 116.501 8.75678Z" fill="#001437"/>
<path d="M91.7907 10.4696H95.2893V12.4033C95.2893 12.4585 95.3169 12.4862 95.372 12.4862H96.7769C96.832 12.4862 96.8596 12.4585 96.8596 12.4033V3.81212C96.8596 3.75687 96.832 3.72925 96.7769 3.72925H95.372C95.3169 3.72925 95.2893 3.75687 95.2893 3.81212V5.33146H91.6805C91.0469 4.53035 90.0276 4.00549 88.8155 4.00549C86.6116 4.00549 85.2342 5.4972 85.124 7.73477C85.124 7.84527 85.124 8.09389 85.124 8.20439C85.1791 10.442 86.6116 11.9613 88.8155 11.9613C91.0193 11.9613 91.1571 11.3812 91.7907 10.4696ZM92.5069 7.7624C92.5069 7.37566 92.4519 7.04417 92.3417 6.68505H95.2893V9.14361H92.3692C92.4518 8.83974 92.4794 8.5635 92.5069 8.25963C92.5069 8.14914 92.5069 7.90052 92.5069 7.79002V7.7624ZM91.0193 8.23201C90.9642 9.66847 90.1929 10.5525 88.8155 10.5525C87.4381 10.5525 86.6392 9.66847 86.6116 8.23201C86.6116 8.12151 86.6116 7.90052 86.6116 7.7624C86.6667 6.32593 87.4381 5.44196 88.8155 5.44196C90.1929 5.44196 90.9918 6.32593 91.0193 7.7624C91.0193 7.87289 91.0193 8.09389 91.0193 8.23201Z" fill="#001437"/>
<path d="M93.4438 12.7073C93.1684 12.7073 92.7276 12.7073 92.4797 12.7073C90.5237 12.7901 89.0361 14.2542 89.0361 16.2432C89.0361 18.2321 90.5237 19.6962 92.4521 19.7791C92.7276 19.7791 93.1684 19.7791 93.4163 19.7791C95.3722 19.6962 96.8598 18.2321 96.8598 16.2432C96.8598 14.2542 95.3722 12.7901 93.4438 12.7073ZM93.4438 18.3703C93.1959 18.3703 92.7551 18.3703 92.4797 18.3703C91.2951 18.315 90.4962 17.431 90.4962 16.2432C90.4962 15.0553 91.2951 14.1437 92.4797 14.1161C92.7276 14.1161 93.1684 14.1161 93.4438 14.1161C94.6284 14.1714 95.4273 15.0553 95.4273 16.2432C95.4273 17.431 94.6284 18.3426 93.4438 18.3703Z" fill="#001437"/>
<path d="M111.322 3.72925H109.89C109.835 3.72925 109.807 3.75687 109.807 3.81212V8.14914H107.3C107.08 5.99444 105.482 4.41986 103.278 4.41986C101.074 4.41986 99.3112 6.16019 99.2285 8.453V9.41986C99.3112 11.7127 100.964 13.4806 103.278 13.4806C105.592 13.4806 107.135 11.8784 107.3 9.6961H109.807V19.2817C109.807 19.337 109.835 19.3646 109.89 19.3646H111.322C111.377 19.3646 111.405 19.337 111.405 19.2817V3.81212C111.405 3.75687 111.377 3.72925 111.322 3.72925ZM105.84 9.41986C105.785 10.9116 104.793 12.0165 103.306 12.0165C101.818 12.0165 100.826 10.8839 100.771 9.41986V8.48063C100.826 6.98892 101.818 5.88394 103.306 5.88394C104.793 5.88394 105.785 7.01654 105.84 8.48063V9.41986Z" fill="#001437"/>
<path d="M24.1322 9.69613C24.1322 4.33702 19.8072 0 14.4628 0H10.7989L16.3912 15.1934C16.4187 15.3039 16.3636 15.3867 16.2534 15.3867H11.708C11.6529 15.3867 11.5978 15.3315 11.5702 15.2762L10.6887 12.6243C10.6887 12.5691 10.6061 12.5138 10.551 12.5138H5.67493C5.61983 12.5138 5.56474 12.5691 5.53719 12.6243L4.65565 15.2762C4.65565 15.3315 4.573 15.3867 4.51791 15.3867H0L15.2066 24.9724V19.3094C20.1928 18.9227 24.1322 14.7514 24.1322 9.64089V9.69613Z" fill="#001437"/>
<path d="M7.05199 8.75697H9.25584C9.36604 8.75697 9.42113 8.64647 9.39358 8.5636L8.29166 5.19343C8.23656 5.05531 8.04372 5.05531 8.01618 5.19343L6.91425 8.5636C6.8867 8.6741 6.94179 8.75697 7.05199 8.75697Z" fill="#001437"/>
<path d="M16.8047 22.652C16.8047 21.3537 17.8515 20.304 19.1463 20.304C20.4411 20.304 21.4879 21.3537 21.4879 22.652C21.4879 23.9504 20.4411 25.0001 19.1463 25.0001C17.8515 25.0001 16.8047 23.9504 16.8047 22.652Z" fill="#EF7D00"/>
</g>
<defs>
<clipPath id="clip0_50_9314">
<rect width="143.333" height="25" fill="white"/>
</clipPath>
</defs>
</svg>
