<svg width="130" height="30" viewBox="0 0 130 30" fill="none" xmlns="http://www.w3.org/2000/svg">
<path d="M40.195 15.293H42.4V19.535H40.195V15.293ZM48.658 5.549H50.863V20.123H48.658V5.549ZM37.444 22.58H51.304V24.365H37.444V22.58ZM37.444 18.716H39.649V23.063H37.444V18.716ZM35.155 16.028L34.861 14.243C38.389 14.243 43.114 14.201 47.167 13.676L47.314 15.272C43.198 15.944 38.62 16.028 35.155 16.028ZM44.878 16.805H49.183V18.359H44.878V16.805ZM41.077 6.284C43.87 6.284 45.823 7.628 45.823 9.665C45.823 11.702 43.87 13.025 41.077 13.025C38.263 13.025 36.331 11.702 36.331 9.665C36.331 7.628 38.263 6.284 41.077 6.284ZM41.077 7.901C39.502 7.901 38.41 8.552 38.41 9.665C38.41 10.757 39.502 11.408 41.077 11.408C42.631 11.408 43.723 10.757 43.723 9.665C43.723 8.552 42.631 7.901 41.077 7.901ZM53.7634 15.209H71.1514V16.973H53.7634V15.209ZM61.5334 16.322H63.7174V20.564H61.5334V16.322ZM55.9474 6.41H68.9044V13.319H55.9474V6.41ZM66.7414 8.153H58.1104V11.576H66.7414V8.153ZM55.8844 22.58H69.2194V24.365H55.8844V22.58ZM55.8844 18.821H58.0684V23.189H55.8844V18.821ZM85.8705 10.82H91.1205V12.605H85.8705V10.82ZM90.5115 5.57H92.7165V19.745H90.5115V5.57ZM80.2215 22.58H93.1575V24.365H80.2215V22.58ZM80.2215 18.359H82.4265V23.546H80.2215V18.359ZM77.6805 6.83H79.8645V10.001H84.3795V6.83H86.5425V16.595H77.6805V6.83ZM79.8645 11.702V14.831H84.3795V11.702H79.8645ZM104.248 8.258H110.023V10.043H104.248V8.258ZM104.248 12.5H110.023V14.285H104.248V12.5ZM98.5989 17.855H111.535V24.743H109.33V19.619H98.5989V17.855ZM109.33 5.549H111.535V16.889H109.33V5.549ZM100.888 6.578C103.723 6.578 105.886 8.531 105.886 11.261C105.886 14.012 103.723 15.944 100.888 15.944C98.0319 15.944 95.8899 14.012 95.8899 11.261C95.8899 8.531 98.0319 6.578 100.888 6.578ZM100.888 8.468C99.2289 8.468 97.9899 9.581 97.9899 11.261C97.9899 12.962 99.2289 14.075 100.888 14.075C102.547 14.075 103.786 12.962 103.786 11.261C103.786 9.581 102.547 8.468 100.888 8.468Z" fill="#EF7D00"/>
<rect x="0.5" y="0.5" width="129" height="29" rx="14.5" stroke="#EF7D00"/>
<circle cx="15" cy="10" r="3" fill="#EF7D00"/>
<circle cx="26" cy="10" r="3" fill="#EF7D00"/>
<circle cx="15" cy="20" r="3" fill="#EF7D00"/>
<circle cx="26" cy="20" r="3" fill="#EF7D00"/>
</svg>
