<svg width="88" height="30" viewBox="0 0 88 30" fill="none" xmlns="http://www.w3.org/2000/svg">
<path d="M40.195 15.293H42.4V19.535H40.195V15.293ZM48.658 5.549H50.863V20.123H48.658V5.549ZM37.444 22.58H51.304V24.365H37.444V22.58ZM37.444 18.716H39.649V23.063H37.444V18.716ZM35.155 16.028L34.861 14.243C38.389 14.243 43.114 14.201 47.167 13.676L47.314 15.272C43.198 15.944 38.62 16.028 35.155 16.028ZM44.878 16.805H49.183V18.359H44.878V16.805ZM41.077 6.284C43.87 6.284 45.823 7.628 45.823 9.665C45.823 11.702 43.87 13.025 41.077 13.025C38.263 13.025 36.331 11.702 36.331 9.665C36.331 7.628 38.263 6.284 41.077 6.284ZM41.077 7.901C39.502 7.901 38.41 8.552 38.41 9.665C38.41 10.757 39.502 11.408 41.077 11.408C42.631 11.408 43.723 10.757 43.723 9.665C43.723 8.552 42.631 7.901 41.077 7.901ZM53.7634 15.209H71.1514V16.973H53.7634V15.209ZM61.5334 16.322H63.7174V20.564H61.5334V16.322ZM55.9474 6.41H68.9044V13.319H55.9474V6.41ZM66.7414 8.153H58.1104V11.576H66.7414V8.153ZM55.8844 22.58H69.2194V24.365H55.8844V22.58ZM55.8844 18.821H58.0684V23.189H55.8844V18.821Z" fill="#EF7D00"/>
<rect x="0.5" y="0.5" width="87" height="29" rx="14.5" stroke="#EF7D00"/>
<circle cx="15" cy="10" r="3" fill="#EF7D00"/>
<circle cx="26" cy="10" r="3" fill="#EF7D00"/>
<circle cx="15" cy="20" r="3" fill="#EF7D00"/>
<circle cx="26" cy="20" r="3" fill="#EF7D00"/>
</svg>
