<svg width="173" height="190" viewBox="0 0 173 190" fill="none" xmlns="http://www.w3.org/2000/svg">
<path d="M162.545 0H0V7.49504H162.545V0Z" fill="#E8E8E8"/>
<path d="M114.877 11.7422H0V19.2372H114.877V11.7422Z" fill="#E8E8E8"/>
<path d="M162.421 11.7422H128.443V19.2372H162.421V11.7422Z" fill="#E8E8E8"/>
<path d="M162.545 23.3596H0V30.8547H162.545V23.3596Z" fill="#E8E8E8"/>
<path d="M16.1799 35.1018H0V42.5968H16.1799V35.1018Z" fill="#E8E8E8"/>
<path d="M162.546 35.1018H29.8711V42.5968H162.546V35.1018Z" fill="#E8E8E8"/>
<path d="M87.1223 46.7192H0V54.2143H87.1223V46.7192Z" fill="#E8E8E8"/>
<path d="M162.421 46.7192H100.688V54.2143H162.421V46.7192Z" fill="#E8E8E8"/>
<path d="M50.6554 58.4614H0V65.9565H50.6554V58.4614Z" fill="#E8E8E8"/>
<path d="M162.545 58.4614H64.2217V65.9565H162.545V58.4614Z" fill="#E8E8E8"/>
<path d="M162.545 70.0786H0V77.5737H162.545V70.0786Z" fill="#E8E8E8"/>
<path d="M162.545 81.8208H0V89.3158H162.545V81.8208Z" fill="#E8E8E8"/>
<path d="M62.1058 93.4382H0V100.933H62.1058V93.4382Z" fill="#E8E8E8"/>
<path d="M162.546 93.4382H75.7969V100.933H162.546V93.4382Z" fill="#E8E8E8"/>
<path d="M162.545 105.18H0V112.675H162.545V105.18Z" fill="#E8E8E8"/>
<path d="M162.545 116.798H48.166V124.293H162.545V116.798Z" fill="#E8E8E8"/>
<path d="M162.545 128.54H0V136.035H162.545V128.54Z" fill="#E8E8E8"/>
<path d="M162.545 140.282H0V147.777H162.545V140.282Z" fill="#E8E8E8"/>
<path d="M30.4928 151.899H0V159.394H30.4928V151.899Z" fill="#E8E8E8"/>
<path d="M162.545 163.642H0V171.137H162.545V163.642Z" fill="#E8E8E8"/>
<path d="M62.4791 175.259H0V182.754H62.4791V175.259Z" fill="#E8E8E8"/>
<path d="M118.86 19.3622C120.235 19.3622 121.35 18.2436 121.35 16.8638C121.35 15.484 120.235 14.3655 118.86 14.3655C117.486 14.3655 116.371 15.484 116.371 16.8638C116.371 18.2436 117.486 19.3622 118.86 19.3622Z" fill="#001437"/>
<path d="M20.163 42.7218C21.5378 42.7218 22.6522 41.6032 22.6522 40.2234C22.6522 38.8436 21.5378 37.7251 20.163 37.7251C18.7883 37.7251 17.6738 38.8436 17.6738 40.2234C17.6738 41.6032 18.7883 42.7218 20.163 42.7218Z" fill="#001437"/>
<path d="M90.9804 54.339C92.3552 54.339 93.4696 53.2204 93.4696 51.8406C93.4696 50.4608 92.3552 49.3423 90.9804 49.3423C89.6057 49.3423 88.4912 50.4608 88.4912 51.8406C88.4912 53.2204 89.6057 54.339 90.9804 54.339Z" fill="#001437"/>
<path d="M54.5136 66.0812C55.8884 66.0812 57.0028 64.9626 57.0028 63.5828C57.0028 62.203 55.8884 61.0845 54.5136 61.0845C53.1389 61.0845 52.0244 62.203 52.0244 63.5828C52.0244 64.9626 53.1389 66.0812 54.5136 66.0812Z" fill="#001437"/>
<path d="M38.458 124.418C39.8327 124.418 40.9472 123.299 40.9472 121.919C40.9472 120.539 39.8327 119.421 38.458 119.421C37.0832 119.421 35.9688 120.539 35.9688 121.919C35.9688 123.299 37.0832 124.418 38.458 124.418Z" fill="#001437"/>
<path d="M66.0888 101.058C67.4636 101.058 68.578 99.9397 68.578 98.5599C68.578 97.1801 67.4636 96.0615 66.0888 96.0615C64.7141 96.0615 63.5996 97.1801 63.5996 98.5599C63.5996 99.9397 64.7141 101.058 66.0888 101.058Z" fill="#001437"/>
<path d="M34.4755 159.52C35.8503 159.52 36.9647 158.401 36.9647 157.021C36.9647 155.641 35.8503 154.523 34.4755 154.523C33.1008 154.523 31.9863 155.641 31.9863 157.021C31.9863 158.401 33.1008 159.52 34.4755 159.52Z" fill="#001437"/>
<path d="M66.4619 182.879C67.8366 182.879 68.9511 181.76 68.9511 180.381C68.9511 179.001 67.8366 177.882 66.4619 177.882C65.0871 177.882 63.9727 179.001 63.9727 180.381C63.9727 181.76 65.0871 182.879 66.4619 182.879Z" fill="#001437"/>
<path d="M162.545 151.899H44.1836V159.394H162.545V151.899Z" fill="#E8E8E8"/>
<path d="M34.4755 116.798H0V124.293H34.4755V116.798Z" fill="#E8E8E8"/>
<circle cx="124.5" cy="141.5" r="46" fill="#E8E8E8" stroke="white" stroke-width="5"/>
<path d="M93.7354 140V128.08H96.6474L99.6074 133.792L100.775 136.432H100.855C100.711 135.168 100.471 133.456 100.471 132.032V128.08H103.191V140H100.279L97.3354 134.256L96.1674 131.648H96.0874C96.2154 132.976 96.4554 134.608 96.4554 136.048V140H93.7354ZM109.866 140.224C106.618 140.224 104.41 137.888 104.41 133.984C104.41 130.08 106.618 127.872 109.866 127.872C113.114 127.872 115.322 130.096 115.322 133.984C115.322 137.888 113.114 140.224 109.866 140.224ZM109.866 137.76C111.434 137.76 112.41 136.288 112.41 133.984C112.41 131.68 111.434 130.32 109.866 130.32C108.298 130.32 107.338 131.68 107.338 133.984C107.338 136.288 108.298 137.76 109.866 137.76ZM116.532 140V128.08H120.9C123.444 128.08 125.556 128.96 125.556 131.84C125.556 134.64 123.444 135.808 120.9 135.808H119.396V140H116.532ZM119.396 133.552H120.676C122.036 133.552 122.772 132.96 122.772 131.84C122.772 130.72 122.036 130.352 120.676 130.352H119.396V133.552ZM122.964 140L120.388 135.072L122.324 133.2L126.164 140H122.964ZM126.86 140V128.08H129.948L131.836 133.232C132.076 133.92 132.268 134.672 132.492 135.392H132.572C132.812 134.672 133.004 133.92 133.228 133.232L135.052 128.08H138.156V140H135.548V135.92C135.548 134.736 135.772 132.96 135.932 131.792H135.852L134.86 134.64L133.26 138.992H131.692L130.076 134.64L129.116 131.792H129.052C129.196 132.96 129.42 134.736 129.42 135.92V140H126.86ZM138.388 140L142.084 128.08H145.508L149.204 140H146.196L144.708 134.048C144.388 132.864 144.084 131.44 143.764 130.224H143.7C143.412 131.472 143.092 132.864 142.788 134.048L141.3 140H138.388ZM140.9 137.264V135.056H146.66V137.264H140.9ZM149.454 140V128.08H152.318V137.6H156.958V140H149.454Z" fill="#9D9D9D"/>
<circle cx="124.5" cy="141.5" r="37.75" stroke="white" stroke-width="1.5"/>
<path d="M123.966 148.913C123.881 148.638 123.648 148.443 123.371 148.417L119.619 148.061L118.135 144.437C118.026 144.172 117.777 144 117.5 144C117.223 144 116.974 144.172 116.865 144.438L115.381 148.061L111.628 148.417C111.352 148.443 111.12 148.638 111.034 148.913C110.948 149.187 111.027 149.489 111.236 149.678L114.072 152.274L113.236 156.118C113.175 156.401 113.28 156.693 113.505 156.863C113.625 156.954 113.767 157 113.909 157C114.032 157 114.154 156.965 114.263 156.897L117.5 154.879L120.735 156.897C120.972 157.046 121.271 157.032 121.495 156.863C121.72 156.693 121.825 156.4 121.764 156.118L120.927 152.274L123.763 149.679C123.972 149.489 124.052 149.188 123.966 148.913Z" fill="#FFC107"/>
<path d="M138.966 148.913C138.881 148.638 138.648 148.443 138.371 148.417L134.619 148.061L133.135 144.437C133.026 144.172 132.777 144 132.5 144C132.223 144 131.974 144.172 131.865 144.438L130.381 148.061L126.628 148.417C126.352 148.443 126.12 148.638 126.034 148.913C125.948 149.187 126.027 149.489 126.236 149.678L129.072 152.274L128.236 156.118C128.175 156.401 128.28 156.693 128.505 156.863C128.625 156.954 128.767 157 128.909 157C129.032 157 129.154 156.965 129.263 156.897L132.5 154.879L135.735 156.897C135.972 157.046 136.271 157.032 136.495 156.863C136.72 156.693 136.825 156.4 136.764 156.118L135.927 152.274L138.763 149.679C138.972 149.489 139.052 149.188 138.966 148.913Z" fill="#FFC107"/>
</svg>
