<svg width="49" height="38" viewBox="0 0 49 38" fill="none" xmlns="http://www.w3.org/2000/svg">
<path d="M7.04388 35.3636L7.04247 35.3629C7.01453 35.3485 6.98592 35.3338 6.95697 35.3188C6.76913 35.2655 6.59864 35.1723 6.45482 35.0495C4.05892 33.7178 1.70966 31.72 0.63911 28.8869C0.639107 28.8869 0.639104 28.8869 0.639101 28.8869L1.10682 28.7102L7.04388 35.3636ZM7.04388 35.3636C9.65147 36.6959 12.4287 37.3784 14.1877 37.4971M7.04388 35.3636L6.65345 3.51421L6.42638 3.06874C9.73139 1.38411 14.0044 0.499567 18.0719 0.5C21.713 0.50039 25.7368 1.27616 28.8902 2.60172C30.4648 3.26356 31.8933 4.09195 32.9501 5.08964C34.0053 6.08572 34.8004 7.36292 34.8004 8.88166V17.6154C34.8004 17.9041 34.7101 18.1728 34.5558 18.3935H46.3139C47.5262 18.3935 48.5 19.3854 48.5 20.5976V35.2959C48.5 36.5081 47.5262 37.5 46.3139 37.5H14.278C14.252 37.5 14.2213 37.4994 14.1877 37.4971M14.1877 37.4971L14.222 36.9983M14.1877 37.4971C14.1879 37.4971 14.1881 37.4972 14.1883 37.4972L14.222 36.9983M14.222 36.9983C14.2406 36.9996 14.2593 37 14.278 37H46.3139C47.2451 37 48 36.237 48 35.2959V20.5976C48 19.6565 47.2451 18.8935 46.3139 18.8935H33.8971L7.27136 34.9184C9.82306 36.2221 12.535 36.8845 14.222 36.9983ZM31.1128 7.06219L31.456 6.69861L31.1128 7.0622C31.8547 7.76253 32.1144 8.37574 32.1144 8.88166C32.1144 9.43476 31.8716 9.99722 31.2713 10.5853C30.6559 11.1881 29.7235 11.7522 28.5349 12.2339C26.3442 13.1216 23.5435 13.6253 21.0194 13.6979C21.4454 13.47 21.7332 13.0182 21.7332 12.503V8.1974C21.7332 7.04304 20.834 6.03675 19.6215 6.01232L19.6215 6.01232C18.2897 5.98552 15.473 5.99955 12.9549 6.49977C11.7065 6.74774 10.4132 7.1369 9.39959 7.78176L9.39959 7.78176C8.35999 8.44317 7.45516 9.49257 7.45516 11.0118V15.6982C7.45516 16.1489 7.6753 16.5511 8.01557 16.7973C7.80871 16.6885 7.60471 16.574 7.40431 16.4538C5.27129 15.1745 3.65791 13.3246 3.18763 10.8955C3.24294 8.824 4.78964 6.93402 7.63976 5.48126C10.4996 4.02357 14.3409 3.20377 18.0716 3.20414C21.3857 3.20448 25.0546 3.91982 27.8553 5.09706L28.0476 4.63964L27.8553 5.09706C29.2578 5.68658 30.3716 6.36252 31.1128 7.06219ZM19.0471 12.503C19.0471 13.0245 19.3419 13.481 19.7764 13.7062C18.1421 13.6995 15.7464 13.6467 13.673 13.2276L13.673 13.2276C12.4894 12.9884 11.5389 12.653 10.9149 12.2301C10.3365 11.8381 10.1413 11.4556 10.1413 11.0118C10.1413 10.738 10.263 10.4313 10.8346 10.0677C11.4362 9.68497 12.3511 9.37596 13.4748 9.15275L13.4749 9.15275C15.4311 8.76414 17.6622 8.70121 19.0471 8.70924V12.503ZM10.1413 15.6982V14.8994C11.0569 15.3652 12.1113 15.6701 13.1442 15.8789C15.778 16.4113 18.7813 16.4112 20.3533 16.4112H20.367H20.3901C23.3451 16.4112 26.7873 15.8571 29.5379 14.7424C30.4641 14.3671 31.3459 13.9146 32.1144 13.3738V17.6154C32.1144 17.9041 32.2047 18.1728 32.359 18.3935H14.278C12.4984 18.3935 10.3408 17.934 8.39151 16.9874C8.51959 17.0282 8.65617 17.0503 8.79821 17.0503C9.54497 17.0503 10.1413 16.4399 10.1413 15.6982ZM40.7018 34.7959V29.1183C40.7018 28.3767 40.1057 27.7663 39.3587 27.7663C38.612 27.7663 38.0157 28.3766 38.0157 29.1183V34.7959H32.6928V29.1183C32.6928 28.3766 32.0965 27.7663 31.3498 27.7663C30.603 27.7663 30.0067 28.3766 30.0067 29.1183V34.7959H24.6839V29.1183C24.6839 28.3766 24.0876 27.7663 23.3408 27.7663C22.594 27.7663 21.9978 28.3766 21.9978 29.1183V34.7959H16.6749V29.1183C16.6749 28.3766 16.0786 27.7663 15.3318 27.7663C14.5851 27.7663 13.9888 28.3766 13.9888 29.1183V34.764C12.6655 34.6128 10.6471 34.101 8.66592 33.1531V26.9882C8.66592 26.2465 8.06963 25.6361 7.32287 25.6361C6.57611 25.6361 5.97982 26.2465 5.97982 26.9882V31.5219C4.723 30.5489 3.72513 29.381 3.1861 28.0196V16.5053C4.02694 17.4049 5.00036 18.1597 6.02955 18.777C8.64349 20.3447 11.7279 21.0976 14.278 21.0976H45.8139V34.7959H40.7018Z" fill="white" stroke="white"/>
</svg>
