<svg width="44" height="44" viewBox="0 0 44 44" fill="none" xmlns="http://www.w3.org/2000/svg">
<path d="M42.7109 8.79999L35.2 1.28908C34.7925 0.87913 34.3077 0.554106 33.7737 0.332834C33.2397 0.111562 32.6671 -0.0015612 32.089 1.62734e-05H19.8C17.4669 0.00250033 15.23 0.930433 13.5802 2.58021C11.9304 4.22998 11.0025 6.46685 10.9999 8.79999H8.79998C6.46684 8.80248 4.22998 9.73041 2.5802 11.3802C0.93042 13.03 0.00248411 15.2668 0 17.6V35.2C0.00248411 37.5332 0.93042 39.77 2.5802 41.4198C4.22998 43.0696 6.46684 43.9975 8.79998 44H24.2C26.5331 43.9975 28.77 43.0696 30.4198 41.4198C32.0696 39.77 32.9975 37.5332 33 35.2H35.2C37.5332 35.1975 39.77 34.2696 41.4198 32.6198C43.0696 30.97 43.9975 28.7332 44 26.4V11.911C43.9969 10.7447 43.5336 9.62671 42.7109 8.79999ZM33 5.31096L38.6891 11H35.7833C35.0455 10.9993 34.3381 10.706 33.8163 10.1844C33.2945 9.66281 33.001 8.95553 33 8.21775V5.31096ZM24.2 39.6001H8.79998C7.63343 39.5987 6.51504 39.1347 5.69016 38.3098C4.86528 37.485 4.40128 36.3666 4.39994 35.2V17.6C4.40128 16.4334 4.86528 15.315 5.69016 14.4902C6.51504 13.6653 7.63344 13.2013 8.79998 13.2H10.9999V26.4C11.0025 28.7332 11.9304 30.9701 13.5802 32.6198C15.23 34.2696 17.4669 35.1975 19.8 35.2H28.6C28.5987 36.3666 28.1347 37.485 27.3098 38.3098C26.4849 39.1347 25.3665 39.5987 24.2 39.6001ZM35.2 30.8H19.8C18.6335 30.7987 17.5151 30.3347 16.6902 29.5098C15.8653 28.685 15.4013 27.5666 15.4 26.4V8.79999C15.4013 7.63344 15.8653 6.51505 16.6902 5.69017C17.5151 4.86529 18.6335 4.40129 19.8 4.39995H28.6V8.21775C28.6025 10.122 29.3601 11.9476 30.7067 13.294C32.0533 14.6404 33.879 15.3978 35.7833 15.4H39.6001V26.4C39.5987 27.5666 39.1347 28.685 38.3098 29.5098C37.485 30.3347 36.3666 30.7987 35.2 30.8Z" fill="white"/>
</svg>
