<svg width="173" height="190" viewBox="0 0 173 190" fill="none" xmlns="http://www.w3.org/2000/svg">
<path d="M163.485 0H0V7.49504H163.485V0Z" fill="#E8E8E8"/>
<path d="M163.485 11.7422H0V19.2372H163.485V11.7422Z" fill="#E8E8E8"/>
<path d="M163.485 23.3596H0V30.8547H163.485V23.3596Z" fill="#E8E8E8"/>
<path d="M82.3683 35.1018H0V42.5968H82.3683V35.1018Z" fill="#E8E8E8"/>
<path d="M163.485 35.1018H96.1387V42.5968H163.485V35.1018Z" fill="#E8E8E8"/>
<path d="M163.485 46.7192H0V54.2143H163.485V46.7192Z" fill="#E8E8E8"/>
<path d="M163.485 58.4614H0V65.9565H163.485V58.4614Z" fill="#E8E8E8"/>
<path d="M37.554 70.0786H0V77.5737H37.554V70.0786Z" fill="#E8E8E8"/>
<path d="M163.485 70.0786H51.3242V77.5737H163.485V70.0786Z" fill="#E8E8E8"/>
<path d="M163.485 81.8208H0V89.3158H163.485V81.8208Z" fill="#E8E8E8"/>
<path d="M163.485 93.4382H0V100.933H163.485V93.4382Z" fill="#E8E8E8"/>
<path d="M163.485 105.18H0V112.675H163.485V105.18Z" fill="#E8E8E8"/>
<path d="M163.485 116.798H0V124.293H163.485V116.798Z" fill="#E8E8E8"/>
<path d="M163.36 128.54H28.666V136.035H163.36V128.54Z" fill="#E8E8E8"/>
<path d="M15.0216 128.54H0V136.035H15.0216V128.54Z" fill="#E8E8E8"/>
<path d="M163.485 140.282H0V147.777H163.485V140.282Z" fill="#E8E8E8"/>
<path d="M163.485 163.642H0V171.137H163.485V163.642Z" fill="#E8E8E8"/>
<path d="M62.8403 175.259H0V182.754H62.8403V175.259Z" fill="#E8E8E8"/>
<path d="M86.3747 42.7218C87.7574 42.7218 88.8783 41.6032 88.8783 40.2234C88.8783 38.8436 87.7574 37.7251 86.3747 37.7251C84.992 37.7251 83.8711 38.8436 83.8711 40.2234C83.8711 41.6032 84.992 42.7218 86.3747 42.7218Z" fill="#001437"/>
<path d="M41.5602 77.6986C42.9429 77.6986 44.0638 76.5801 44.0638 75.2003C44.0638 73.8205 42.9429 72.7019 41.5602 72.7019C40.1775 72.7019 39.0566 73.8205 39.0566 75.2003C39.0566 76.5801 40.1775 77.6986 41.5602 77.6986Z" fill="#001437"/>
<path d="M18.902 136.16C20.2847 136.16 21.4056 135.041 21.4056 133.662C21.4056 132.282 20.2847 131.163 18.902 131.163C17.5193 131.163 16.3984 132.282 16.3984 133.662C16.3984 135.041 17.5193 136.16 18.902 136.16Z" fill="#001437"/>
<path d="M66.8454 182.879C68.2281 182.879 69.349 181.76 69.349 180.381C69.349 179.001 68.2281 177.882 66.8454 177.882C65.4627 177.882 64.3418 179.001 64.3418 180.381C64.3418 181.76 65.4627 182.879 66.8454 182.879Z" fill="#001437"/>
<path d="M163.485 151.899H0V159.394H163.485V151.899Z" fill="#E8E8E8"/>
<circle cx="124.5" cy="141.5" r="46" fill="#E8E8E8" stroke="white" stroke-width="5"/>
<path d="M104.407 140V128.08H107.271V132.624H111.191V128.08H114.039V140H111.191V135.104H107.271V140H104.407ZM114.294 140L117.99 128.08H121.414L125.11 140H122.102L120.614 134.048C120.294 132.864 119.99 131.44 119.67 130.224H119.606C119.318 131.472 118.998 132.864 118.694 134.048L117.206 140H114.294ZM116.806 137.264V135.056H122.566V137.264H116.806ZM125.36 140V128.08H129.728C132.272 128.08 134.384 128.96 134.384 131.84C134.384 134.64 132.272 135.808 129.728 135.808H128.224V140H125.36ZM128.224 133.552H129.504C130.864 133.552 131.6 132.96 131.6 131.84C131.6 130.72 130.864 130.352 129.504 130.352H128.224V133.552ZM131.792 140L129.216 135.072L131.152 133.2L134.992 140H131.792ZM135.689 140V128.08H139.113C142.745 128.08 145.145 129.84 145.145 133.984C145.145 138.128 142.745 140 139.273 140H135.689ZM138.553 137.696H138.937C140.857 137.696 142.217 136.816 142.217 133.984C142.217 131.152 140.857 130.368 138.937 130.368H138.553V137.696Z" fill="#9D9D9D"/>
<circle cx="124.5" cy="141.5" r="37.75" stroke="white" stroke-width="1.5"/>
<path d="M115.966 148.913C115.881 148.638 115.648 148.443 115.371 148.417L111.619 148.061L110.135 144.437C110.026 144.172 109.777 144 109.5 144C109.223 144 108.974 144.172 108.865 144.438L107.381 148.061L103.628 148.417C103.352 148.443 103.12 148.638 103.034 148.913C102.948 149.187 103.027 149.489 103.236 149.678L106.072 152.274L105.236 156.118C105.175 156.401 105.28 156.693 105.505 156.863C105.625 156.954 105.767 157 105.909 157C106.032 157 106.154 156.965 106.263 156.897L109.5 154.879L112.735 156.897C112.972 157.046 113.271 157.032 113.495 156.863C113.72 156.693 113.825 156.4 113.764 156.118L112.927 152.274L115.763 149.679C115.972 149.489 116.052 149.188 115.966 148.913Z" fill="#FFC107"/>
<path d="M130.966 148.913C130.881 148.638 130.648 148.443 130.371 148.417L126.619 148.061L125.135 144.437C125.026 144.172 124.777 144 124.5 144C124.223 144 123.974 144.172 123.865 144.438L122.381 148.061L118.628 148.417C118.352 148.443 118.12 148.638 118.034 148.913C117.948 149.187 118.027 149.489 118.236 149.678L121.072 152.274L120.236 156.118C120.175 156.401 120.28 156.693 120.505 156.863C120.625 156.954 120.767 157 120.909 157C121.032 157 121.154 156.965 121.263 156.897L124.5 154.879L127.735 156.897C127.972 157.046 128.271 157.032 128.495 156.863C128.72 156.693 128.825 156.4 128.764 156.118L127.927 152.274L130.763 149.679C130.972 149.489 131.052 149.188 130.966 148.913Z" fill="#FFC107"/>
<path d="M145.966 148.913C145.881 148.638 145.648 148.443 145.371 148.417L141.619 148.061L140.135 144.437C140.026 144.172 139.777 144 139.5 144C139.223 144 138.974 144.172 138.865 144.438L137.381 148.061L133.628 148.417C133.352 148.443 133.12 148.638 133.034 148.913C132.948 149.187 133.027 149.489 133.236 149.678L136.072 152.274L135.236 156.118C135.175 156.401 135.28 156.693 135.505 156.863C135.625 156.954 135.767 157 135.909 157C136.032 157 136.154 156.965 136.263 156.897L139.5 154.879L142.735 156.897C142.972 157.046 143.271 157.032 143.495 156.863C143.72 156.693 143.825 156.4 143.764 156.118L142.927 152.274L145.763 149.679C145.972 149.489 146.052 149.188 145.966 148.913Z" fill="#FFC107"/>
</svg>
