<svg width="173" height="190" viewBox="0 0 173 190" fill="none" xmlns="http://www.w3.org/2000/svg">
<path d="M163.485 0H0V7.49504H163.485V0Z" fill="#E8E8E8"/>
<path d="M36.4273 11.7422H0V19.2372H36.4273V11.7422Z" fill="#E8E8E8"/>
<path d="M163.485 11.7422H50.1973V19.2372H163.485V11.7422Z" fill="#E8E8E8"/>
<path d="M91.2561 23.3596H0V30.8547H91.2561V23.3596Z" fill="#E8E8E8"/>
<path d="M163.484 23.3596H105.025V30.8547H163.484V23.3596Z" fill="#E8E8E8"/>
<path d="M54.4532 35.1018H0V42.5968H54.4532V35.1018Z" fill="#E8E8E8"/>
<path d="M163.485 35.1018H68.2227V42.5968H163.485V35.1018Z" fill="#E8E8E8"/>
<path d="M118.42 46.7192H0V54.2143H118.42V46.7192Z" fill="#E8E8E8"/>
<path d="M163.359 46.7192H132.064V54.2143H163.359V46.7192Z" fill="#E8E8E8"/>
<path d="M27.4144 58.4614H0V65.9565H27.4144V58.4614Z" fill="#E8E8E8"/>
<path d="M163.484 58.4614H41.1836V65.9565H163.484V58.4614Z" fill="#E8E8E8"/>
<path d="M88.377 70.0786H0V77.5737H88.377V70.0786Z" fill="#E8E8E8"/>
<path d="M163.485 70.0786H102.146V77.5737H163.485V70.0786Z" fill="#E8E8E8"/>
<path d="M16.2734 81.8208H0V89.3158H16.2734V81.8208Z" fill="#E8E8E8"/>
<path d="M142.329 81.8208H30.043V89.3158H142.329V81.8208Z" fill="#E8E8E8"/>
<path d="M163.485 81.8208H156.1V89.3158H163.485V81.8208Z" fill="#E8E8E8"/>
<path d="M62.4647 93.4382H0V100.933H62.4647V93.4382Z" fill="#E8E8E8"/>
<path d="M163.485 93.4382H76.2344V100.933H163.485V93.4382Z" fill="#E8E8E8"/>
<path d="M163.485 105.18H0V112.675H163.485V105.18Z" fill="#E8E8E8"/>
<path d="M163.485 116.798H0V124.293H163.485V116.798Z" fill="#E8E8E8"/>
<path d="M163.36 128.54H28.666V136.035H163.36V128.54Z" fill="#E8E8E8"/>
<path d="M15.0216 128.54H0V136.035H15.0216V128.54Z" fill="#E8E8E8"/>
<path d="M163.485 140.282H0V147.777H163.485V140.282Z" fill="#E8E8E8"/>
<path d="M30.6691 151.899H0V159.394H30.6691V151.899Z" fill="#E8E8E8"/>
<path d="M163.485 163.642H0V171.137H163.485V163.642Z" fill="#E8E8E8"/>
<path d="M62.8403 175.259H0V182.754H62.8403V175.259Z" fill="#E8E8E8"/>
<path d="M40.4333 19.3622C41.816 19.3622 42.9369 18.2436 42.9369 16.8638C42.9369 15.484 41.816 14.3655 40.4333 14.3655C39.0506 14.3655 37.9297 15.484 37.9297 16.8638C37.9297 18.2436 39.0506 19.3622 40.4333 19.3622Z" fill="#001437"/>
<path d="M95.2614 30.9796C96.6441 30.9796 97.765 29.8611 97.765 28.4813C97.765 27.1015 96.6441 25.9829 95.2614 25.9829C93.8787 25.9829 92.7578 27.1015 92.7578 28.4813C92.7578 29.8611 93.8787 30.9796 95.2614 30.9796Z" fill="#001437"/>
<path d="M58.4587 42.7218C59.8414 42.7218 60.9623 41.6032 60.9623 40.2234C60.9623 38.8436 59.8414 37.7251 58.4587 37.7251C57.076 37.7251 55.9551 38.8436 55.9551 40.2234C55.9551 41.6032 57.076 42.7218 58.4587 42.7218Z" fill="#001437"/>
<path d="M122.425 54.339C123.808 54.339 124.929 53.2204 124.929 51.8406C124.929 50.4608 123.808 49.3423 122.425 49.3423C121.043 49.3423 119.922 50.4608 119.922 51.8406C119.922 53.2204 121.043 54.339 122.425 54.339Z" fill="#001437"/>
<path d="M31.4196 66.0812C32.8023 66.0812 33.9232 64.9626 33.9232 63.5828C33.9232 62.203 32.8023 61.0845 31.4196 61.0845C30.0369 61.0845 28.916 62.203 28.916 63.5828C28.916 64.9626 30.0369 66.0812 31.4196 66.0812Z" fill="#001437"/>
<path d="M92.3825 77.6986C93.7652 77.6986 94.8861 76.5801 94.8861 75.2003C94.8861 73.8205 93.7652 72.7019 92.3825 72.7019C90.9998 72.7019 89.8789 73.8205 89.8789 75.2003C89.8789 76.5801 90.9998 77.6986 92.3825 77.6986Z" fill="#001437"/>
<path d="M146.336 89.4408C147.718 89.4408 148.839 88.3222 148.839 86.9424C148.839 85.5626 147.718 84.4441 146.336 84.4441C144.953 84.4441 143.832 85.5626 143.832 86.9424C143.832 88.3222 144.953 89.4408 146.336 89.4408Z" fill="#001437"/>
<path d="M66.4704 101.058C67.8531 101.058 68.974 99.9397 68.974 98.5599C68.974 97.1801 67.8531 96.0615 66.4704 96.0615C65.0877 96.0615 63.9668 97.1801 63.9668 98.5599C63.9668 99.9397 65.0877 101.058 66.4704 101.058Z" fill="#001437"/>
<path d="M20.279 89.4408C21.6617 89.4408 22.7826 88.3222 22.7826 86.9424C22.7826 85.5626 21.6617 84.4441 20.279 84.4441C18.8963 84.4441 17.7754 85.5626 17.7754 86.9424C17.7754 88.3222 18.8963 89.4408 20.279 89.4408Z" fill="#001437"/>
<path d="M18.902 136.16C20.2847 136.16 21.4056 135.041 21.4056 133.662C21.4056 132.282 20.2847 131.163 18.902 131.163C17.5193 131.163 16.3984 132.282 16.3984 133.662C16.3984 135.041 17.5193 136.16 18.902 136.16Z" fill="#001437"/>
<path d="M34.6755 159.52C36.0582 159.52 37.1791 158.401 37.1791 157.021C37.1791 155.641 36.0582 154.523 34.6755 154.523C33.2928 154.523 32.1719 155.641 32.1719 157.021C32.1719 158.401 33.2928 159.52 34.6755 159.52Z" fill="#001437"/>
<path d="M66.8454 182.879C68.2281 182.879 69.349 181.76 69.349 180.381C69.349 179.001 68.2281 177.882 66.8454 177.882C65.4627 177.882 64.3418 179.001 64.3418 180.381C64.3418 181.76 65.4627 182.879 66.8454 182.879Z" fill="#001437"/>
<path d="M163.485 151.899H44.4395V159.394H163.485V151.899Z" fill="#E8E8E8"/>
<circle cx="124.5" cy="141.5" r="46" fill="#E8E8E8" stroke="white" stroke-width="5"/>
<circle cx="124.5" cy="141.5" r="37.75" stroke="white" stroke-width="1.5"/>
<path d="M107.806 140V128.08H115.358V130.464H110.67V132.672H114.654V135.072H110.67V137.6H115.534V140H107.806ZM115.38 140L119.076 128.08H122.5L126.196 140H123.188L121.7 134.048C121.38 132.864 121.076 131.44 120.756 130.224H120.692C120.404 131.472 120.084 132.864 119.78 134.048L118.292 140H115.38ZM117.892 137.264V135.056H123.652V137.264H117.892ZM130.142 140.224C128.59 140.224 126.926 139.648 125.694 138.512L127.326 136.544C128.158 137.264 129.262 137.76 130.206 137.76C131.262 137.76 131.758 137.36 131.758 136.72C131.758 136.032 131.102 135.808 130.078 135.376L128.558 134.736C127.31 134.24 126.142 133.2 126.142 131.472C126.142 129.472 127.934 127.872 130.462 127.872C131.838 127.872 133.294 128.4 134.334 129.44L132.91 131.232C132.126 130.64 131.39 130.32 130.462 130.32C129.582 130.32 129.054 130.672 129.054 131.296C129.054 131.968 129.79 132.224 130.846 132.64L132.334 133.232C133.806 133.824 134.686 134.816 134.686 136.496C134.686 138.48 133.022 140.224 130.142 140.224ZM137.276 140V135.792L133.692 128.08H136.732L137.724 130.736C138.044 131.632 138.348 132.464 138.684 133.392H138.748C139.084 132.464 139.404 131.632 139.74 130.736L140.732 128.08H143.724L140.124 135.792V140H137.276Z" fill="#9D9D9D"/>
<path d="M130.966 148.913C130.881 148.638 130.648 148.443 130.371 148.417L126.619 148.061L125.135 144.437C125.026 144.172 124.777 144 124.5 144C124.223 144 123.974 144.172 123.865 144.438L122.381 148.061L118.628 148.417C118.352 148.443 118.12 148.638 118.034 148.913C117.948 149.187 118.027 149.489 118.236 149.678L121.072 152.274L120.236 156.118C120.175 156.401 120.28 156.693 120.505 156.863C120.625 156.954 120.767 157 120.909 157C121.032 157 121.154 156.965 121.263 156.897L124.5 154.879L127.735 156.897C127.972 157.046 128.271 157.032 128.495 156.863C128.72 156.693 128.825 156.4 128.764 156.118L127.927 152.274L130.763 149.679C130.972 149.489 131.052 149.188 130.966 148.913Z" fill="#FFC107"/>
</svg>
