<svg width="19" height="22" viewBox="0 0 19 22" fill="none" xmlns="http://www.w3.org/2000/svg">
<path d="M16.7251 7.19431C16.4606 7.19431 16.1961 7.24645 15.9316 7.35071C15.667 6.41232 14.8206 5.78673 13.7625 5.78673C12.7044 5.78673 13.1806 5.83886 12.916 5.94313C12.5986 5.05687 11.7522 4.43128 10.7999 4.43128C9.84761 4.43128 10.3237 4.43128 10.1121 4.53555V2.18957C10.1121 0.990522 9.10695 0 7.89016 0C6.67337 0 5.66819 0.990522 5.66819 2.18957V11.782L4.76883 10.4787C3.92236 9.38389 2.38815 9.17536 1.22426 9.90521C0.642314 10.2701 0.219083 10.8957 0.0603706 11.5735C-0.0983414 12.2512 0.0603706 12.981 0.483603 13.5545L4.3985 19.654C5.40367 21.1137 7.0966 22 8.84243 22H13.2335C16.4077 22 19 19.4455 19 16.3175V9.43602C19 8.23697 17.9948 7.24645 16.778 7.24645L16.7251 7.19431ZM17.4129 16.2654C17.4129 18.5592 15.5083 20.436 13.1806 20.436H8.78953C7.51983 20.436 6.30304 19.8104 5.61529 18.7678L1.70039 12.6682C1.54168 12.4076 1.48878 12.0948 1.54168 11.8341C1.59459 11.5213 1.7533 11.3128 2.01782 11.1043C2.49395 10.7915 3.1288 10.8957 3.49913 11.3128L7.14951 16.6303V2.18957C7.14951 1.82464 7.46693 1.51185 7.83726 1.51185C8.20759 1.51185 8.52501 1.82464 8.52501 2.18957V9.74882H10.0592V6.62085C10.0592 6.25593 10.3766 5.94313 10.747 5.94313C11.1173 5.94313 11.4347 6.25593 11.4347 6.62085V9.74882H12.9689V7.97631C12.9689 7.61138 13.2864 7.29858 13.6567 7.29858C14.027 7.29858 14.3444 7.61138 14.3444 7.97631V9.74882H15.8787V9.48815C15.8787 9.01896 16.1961 8.70616 16.5664 8.70616C16.9367 8.70616 17.2542 9.01896 17.2542 9.38389V16.2654H17.4129Z" fill="white"/>
</svg>
