<svg width="36" height="36" viewBox="0 0 36 36" fill="none" xmlns="http://www.w3.org/2000/svg">
<circle cx="18" cy="18" r="18" fill="#D42929"/>
<path d="M31.9281 12.6983C30.873 12.0175 29.4952 12.3691 28.8523 13.4863L28.2022 14.6135C26.8174 9.6409 22.4697 6 17.3331 6C11.0825 6 6 11.384 6 18C6 24.616 11.0848 30 17.3331 30C18.5696 30 19.5705 28.9401 19.5705 27.6309C19.5705 26.3217 18.5696 25.2618 17.3331 25.2618C13.5507 25.2618 10.4748 22.005 10.4748 18C10.4748 13.995 13.5507 10.7382 17.3331 10.7382C20.5197 10.7382 23.2045 13.0499 23.97 16.1721L22.3802 15.1446C21.3251 14.4638 19.9497 14.8155 19.3044 15.9327C18.6614 17.0499 18.9959 18.5087 20.051 19.1895L25.9789 23.02C26.3322 23.2494 26.7373 23.3666 27.1448 23.3666C27.3214 23.3666 27.498 23.3441 27.67 23.2993C28.247 23.1521 28.7439 22.7681 29.0548 22.2319L32.6723 15.9551C33.3153 14.8379 32.9832 13.3815 31.9281 12.6983Z" fill="white"/>
</svg>
