<svg width="20" height="20" viewBox="0 0 20 20" fill="none" xmlns="http://www.w3.org/2000/svg">
<g clip-path="url(#clip0_86_156)">
<path d="M19.6406 17.8749L15.7656 13.9999C18.6562 10.1249 17.8749 4.64055 13.9999 1.74993C10.1249 -1.15632 4.64055 -0.359447 1.74993 3.51555C-1.15632 7.37493 -0.359447 12.8593 3.51555 15.7656C6.62493 18.0937 10.8906 18.0937 13.9999 15.7656L17.8749 19.6406C18.3593 20.1249 19.1562 20.1249 19.6406 19.6406C20.1249 19.1562 20.1249 18.3593 19.6406 17.8749ZM8.7968 15.0156C5.3593 15.0156 2.56243 12.2343 2.56243 8.78118C2.56243 5.32805 5.34368 2.56243 8.78118 2.56243C12.2187 2.56243 15.0156 5.34368 15.0156 8.7968C15.0156 12.2343 12.2187 15.0156 8.78118 15.0312L8.7968 15.0156Z" fill="white"/>
</g>
<defs>
<clipPath id="clip0_86_156">
<rect width="20" height="20" fill="white"/>
</clipPath>
</defs>
</svg>
