<svg width="124" height="30" viewBox="0 0 124 30" fill="none" xmlns="http://www.w3.org/2000/svg">
<rect x="0.5" y="0.5" width="123" height="29" rx="14.5" fill="#EF7D00" stroke="#EF7D00"/>
<path d="M44.227 8.93H49.477V10.694H44.227V8.93ZM44.227 13.067H49.54V14.831H44.227V13.067ZM48.658 5.57H50.863V19.745H48.658V5.57ZM38.368 22.58H51.304V24.365H38.368V22.58ZM38.368 18.359H40.573V23.546H38.368V18.359ZM35.827 6.83H38.011V10.001H42.526V6.83H44.689V16.595H35.827V6.83ZM38.011 11.702V14.831H42.526V11.702H38.011ZM64.5784 9.98H68.3164V11.765H64.5784V9.98ZM64.5574 13.76H68.2744V15.524H64.5574V13.76ZM53.8054 7.481H64.4734V9.245H53.8054V7.481ZM59.2234 10.085C61.8274 10.085 63.6334 11.513 63.6334 13.655C63.6334 15.797 61.8274 17.225 59.2234 17.225C56.6404 17.225 54.8134 15.797 54.8134 13.655C54.8134 11.513 56.6404 10.085 59.2234 10.085ZM59.2234 11.744C57.8164 11.744 56.8714 12.458 56.8714 13.655C56.8714 14.852 57.8164 15.566 59.2234 15.566C60.6304 15.566 61.5964 14.852 61.5964 13.655C61.5964 12.458 60.6304 11.744 59.2234 11.744ZM58.1524 5.381H60.3364V8.699H58.1524V5.381ZM67.4764 5.549H69.6814V17.876H67.4764V5.549ZM63.2974 18.086C67.3084 18.086 69.7654 19.325 69.7654 21.404C69.7654 23.504 67.3084 24.722 63.2974 24.722C59.2864 24.722 56.8294 23.504 56.8294 21.404C56.8294 19.325 59.2864 18.086 63.2974 18.086ZM63.2974 19.787C60.6724 19.787 59.1394 20.333 59.1394 21.404C59.1394 22.475 60.6724 23.042 63.2974 23.042C65.9224 23.042 67.4554 22.475 67.4554 21.404C67.4554 20.333 65.9224 19.787 63.2974 19.787ZM77.4747 8.426H79.2387V11.114C79.2387 15.335 77.0757 19.514 73.7787 21.089L72.5187 19.346C75.4797 17.981 77.4747 14.39 77.4747 11.114V8.426ZM77.9367 8.426H79.6797V11.114C79.6797 14.285 81.6537 17.603 84.6567 18.863L83.4387 20.606C80.0997 19.115 77.9367 15.23 77.9367 11.114V8.426ZM73.2117 7.46H83.9427V9.287H73.2117V7.46ZM86.1897 5.549H88.3947V24.743H86.1897V5.549ZM91.4001 15.209H108.788V16.973H91.4001V15.209ZM99.1701 16.322H101.354V20.564H99.1701V16.322ZM93.5841 6.41H106.541V13.319H93.5841V6.41ZM104.378 8.153H95.7471V11.576H104.378V8.153ZM93.5211 22.58H106.856V24.365H93.5211V22.58ZM93.5211 18.821H95.7051V23.189H93.5211V18.821Z" fill="white"/>
<circle cx="15" cy="10" r="3" fill="white"/>
<circle cx="26" cy="10" r="3" fill="white"/>
<circle cx="15" cy="20" r="3" fill="white"/>
<circle cx="26" cy="20" r="3" fill="white"/>
</svg>
