<svg width="20" height="20" viewBox="0 0 20 20" fill="none" xmlns="http://www.w3.org/2000/svg">
<g clip-path="url(#clip0_50_9337)">
<path d="M19.1004 18.341C19.1004 18.7562 18.7567 19.0999 18.3415 19.0999C17.1673 19.0999 16.6088 18.2551 16.1935 17.625C15.8212 17.0522 15.6208 16.8231 15.3057 16.8231C14.9907 16.8231 14.6184 17.1525 14.1602 17.6966C13.6304 18.3267 12.9717 19.0999 11.8691 19.0999C10.7665 19.0999 10.1078 18.3123 9.59229 17.6823C9.14839 17.1525 8.862 16.8231 8.48969 16.8231C8.11739 16.8231 8.01715 17.0093 7.61621 17.5104C7.07207 18.1835 6.31314 19.0999 4.70936 19.0999C3.10558 19.0999 0.900391 17.3959 0.900391 15.3053C0.900391 13.2146 2.6044 11.5106 4.69504 11.5106C6.78568 11.5106 5.45397 11.8543 5.45397 12.2695C5.45397 12.6848 5.1103 13.0285 4.69504 13.0285C3.44925 13.0285 2.41825 14.0451 2.41825 15.3053C2.41825 16.5654 3.43493 17.582 4.69504 17.582C5.95515 17.582 5.95515 17.1238 6.42769 16.551C6.88591 15.9926 7.44437 15.3053 8.47537 15.3053C9.50637 15.3053 10.2367 16.0928 10.7522 16.7229C11.1961 17.2527 11.4825 17.582 11.8548 17.582C12.2271 17.582 12.5421 17.2527 13.0003 16.7086C13.5301 16.0785 14.1888 15.3053 15.2914 15.3053C16.394 15.3053 17.0241 16.1501 17.4393 16.7802C17.8116 17.3529 18.0121 17.582 18.3271 17.582C18.6422 17.582 19.0861 17.9257 19.0861 18.341H19.1004ZM7.71644 13.0285H8.43241C9.2343 13.0285 10.0076 12.7134 10.5803 12.1407L16.437 6.28401L13.7163 3.56332L7.85964 9.41997C7.28686 9.99274 6.97183 10.766 6.97183 11.5679V12.2839C6.97183 12.6991 7.30118 13.0285 7.71644 13.0285ZM18.5419 4.17905C18.8999 3.82107 19.1004 3.33421 19.1004 2.81871C19.1004 2.30321 18.8999 1.81635 18.5419 1.45836C17.7973 0.71375 16.5659 0.71375 15.8212 1.45836L14.7902 2.48936L17.5109 5.21005L18.5419 4.17905Z" fill="white"/>
</g>
<defs>
<clipPath id="clip0_50_9337">
<rect width="18.2" height="18.2" fill="white" transform="translate(0.900391 0.899902)"/>
</clipPath>
</defs>
</svg>
